STARTFONT 2.1
COMMENT created by Jeff Weinstein
FONT xtrek
SIZE 31 78 78
FONTBOUNDINGBOX 32 64 0 -64
STARTPROPERTIES 3
OWNERSHIP "Created by Mike and Dave"
FONT_ASCENT 0
FONT_DESCENT 64
ENDPROPERTIES
CHARS 128 
STARTCHAR fedview_0
ENCODING -1 64
SWIDTH 516 0
DWIDTH 16 0
BBX 16 16 0 -16
BITMAP
03c0
07e0
0ff0
0ff0
0ff0
07e0
03c0
0990
0990
0990
0ff0
0990
0990
0810
0810
0810
ENDCHAR
STARTCHAR fedview_1
ENCODING -1 65
SWIDTH 516 0
DWIDTH 16 0
BBX 16 16 0 -16
BITMAP
0060
03f8
03f8
03f8
03fc
01f8
09f8
09c0
1990
1f10
13a0
2760
2240
4040
0040
0080
ENDCHAR
STARTCHAR fedview_2
ENCODING -1 66
SWIDTH 516 0
DWIDTH 16 0
BBX 16 16 0 -16
BITMAP
0000
0078
00fc
00fe
00fe
04fe
08fe
19fc
27b8
4700
8f20
0540
0180
0100
0200
0400
ENDCHAR
STARTCHAR fedview_3
ENCODING -1 67
SWIDTH 516 0
DWIDTH 16 0
BBX 16 16 0 -16
BITMAP
0000
0000
0010
007e
037e
0c7f
78ff
85fe
0ffe
1e1e
0a00
03c0
0700
1800
2000
0000
ENDCHAR
STARTCHAR fedview_4
ENCODING -1 68
SWIDTH 516 0
DWIDTH 16 0
BBX 16 16 0 -16
BITMAP
0000
0000
0000
0000
ff9c
043e
047f
1fff
1fff
047f
043e
ff9c
0000
0000
0000
0000
ENDCHAR
STARTCHAR fedview_5
ENCODING -1 69
SWIDTH 516 0
DWIDTH 16 0
BBX 16 16 0 -16
BITMAP
0000
2000
1800
0700
03c0
0a00
1e1e
0ffe
85fe
78ff
0c7f
037e
007e
0010
0000
0000
ENDCHAR
STARTCHAR fedview_6
ENCODING -1 70
SWIDTH 516 0
DWIDTH 16 0
BBX 16 16 0 -16
BITMAP
0400
0200
0100
0080
04c0
8f20
4700
3f80
11fc
08fe
05fe
01fe
01fe
00fc
0078
0000
ENDCHAR
STARTCHAR fedview_7
ENCODING -1 71
SWIDTH 516 0
DWIDTH 16 0
BBX 16 16 0 -16
BITMAP
0080
0040
4040
2240
2760
13a0
1f10
1990
09c0
09f8
01f8
03fc
03f8
03f8
03f8
0060
ENDCHAR
STARTCHAR fedview_8
ENCODING -1 72
SWIDTH 516 0
DWIDTH 16 0
BBX 16 16 0 -16
BITMAP
0810
0810
0810
0990
0990
0ff0
0990
0990
0990
03c0
07e0
0ff0
0ff0
0ff0
07e0
03c0
ENDCHAR
STARTCHAR fedview_9
ENCODING -1 73
SWIDTH 516 0
DWIDTH 16 0
BBX 16 16 0 -16
BITMAP
0100
0200
0202
0244
06e4
05c8
08f8
0998
0390
1f90
1f80
3fc0
1fc0
1fc0
1fc0
0600
ENDCHAR
STARTCHAR fedview_10
ENCODING -1 74
SWIDTH 516 0
DWIDTH 16 0
BBX 16 16 0 -16
BITMAP
0020
0040
0080
0180
02a0
04f1
00e2
1de4
3f98
7f10
7f20
7f00
7f00
3f00
1e00
0000
ENDCHAR
STARTCHAR fedview_11
ENCODING -1 75
SWIDTH 516 0
DWIDTH 16 0
BBX 16 16 0 -16
BITMAP
0000
0004
0018
00e0
03c0
0050
7878
7ff0
7fa1
ff1e
fe30
7ec0
7e00
0800
0000
0000
ENDCHAR
STARTCHAR fedview_12
ENCODING -1 76
SWIDTH 516 0
DWIDTH 16 0
BBX 16 16 0 -16
BITMAP
0000
0000
0000
0000
39ff
7c20
fe20
fff8
fff8
fe20
7c20
39ff
0000
0000
0000
0000
ENDCHAR
STARTCHAR fedview_13
ENCODING -1 77
SWIDTH 516 0
DWIDTH 16 0
BBX 16 16 0 -16
BITMAP
0000
0000
0800
7e00
7ec0
fe30
ff1e
7fa1
7ff0
7878
0050
03c0
00e0
0018
0004
0000
ENDCHAR
STARTCHAR fedview_14
ENCODING -1 78
SWIDTH 516 0
DWIDTH 16 0
BBX 16 16 0 -16
BITMAP
0000
1e00
3f00
7f80
7f80
7fa0
7f10
3f88
01fc
00e2
04f1
0320
0100
0080
0040
0020
ENDCHAR
STARTCHAR fedview_15
ENCODING -1 79 
SWIDTH 516 0
DWIDTH 16 0
BBX 16 16 0 -16
BITMAP
0600
1fc0
1fc0
1fc0
3fc0
1f80
1f90
0390
0998
08f8
05c8
06e4
0244
0202
0200
0100
ENDCHAR
STARTCHAR romview_0
ENCODING -1 80
SWIDTH 516 0
DWIDTH 16 0
BBX 16 16 0 -16
BITMAP
0000
0000
0000
43c2
47e2
4ff2
5ffa
5ffa
7ffe
7ffe
700e
4002
4002
0000
0000
0000
ENDCHAR
STARTCHAR romview_1
ENCODING -1 81
SWIDTH 516 0
DWIDTH 16 0
BBX 16 16 0 -16
BITMAP
0000
1000
1000
21c0
2ff0
6ff0
7ff1
7ff9
effa
83fa
007e
001c
001c
0008
0008
0000
ENDCHAR
STARTCHAR romview_2
ENCODING -1 82
SWIDTH 516 0
DWIDTH 16 0
BBX 16 16 0 -16
BITMAP
0600
0400
0800
13e0
3ff0
fff8
9ff8
07f8
03f8
01f9
00f3
0074
0078
0030
0020
0060
ENDCHAR
STARTCHAR romview_3
ENCODING -1 83
SWIDTH 516 0
DWIDTH 16 0
BBX 16 16 0 -16
BITMAP
00c0
0700
1c00
7f80
1ff0
07f0
07f8
03f8
03f8
03f0
01f0
01f0
00c6
01f8
01e0
0300
ENDCHAR
STARTCHAR romview_4
ENCODING -1 84
SWIDTH 516 0
DWIDTH 16 0
BBX 16 16 0 -16
BITMAP
0000
1ff8
0700
07c0
03e0
03f0
03f8
03f8
03f8
03f8
03f0
03e0
07c0
0700
1ff8
0000
ENDCHAR
STARTCHAR romview_5
ENCODING -1 85
SWIDTH 516 0
DWIDTH 16 0
BBX 16 16 0 -16
BITMAP
0300
01e0
01f8
00c6
01f0
01f0
03f0
03f8
03f8
07f8
07f0
1ff0
7f80
1c00
0700
00c0
ENDCHAR
STARTCHAR romview_6
ENCODING -1 86
SWIDTH 516 0
DWIDTH 16 0
BBX 16 16 0 -16
BITMAP
0060
0020
0030
0078
0074
00f3
01f9
03f8
07f8
9ff8
fff8
3ff0
17e0
0800
0400
0600
ENDCHAR
STARTCHAR romview_7
ENCODING -1 87
SWIDTH 516 0
DWIDTH 16 0
BBX 16 16 0 -16
BITMAP
0000
0008
0008
001c
001c
007e
83fa
effa
7ff9
7ff1
6ff0
2ff0
21c0
1000
1000
0000
ENDCHAR
STARTCHAR romview_8
ENCODING -1 88
SWIDTH 516 0
DWIDTH 16 0
BBX 16 16 0 -16
BITMAP
0000
0000
0000
4002
4002
700e
7ffe
7ffe
5ffa
5ffa
4ff2
47e2
43c2
0000
0000
0000
ENDCHAR
STARTCHAR romview_9
ENCODING -1 89
SWIDTH 516 0
DWIDTH 16 0
BBX 16 16 0 -16
BITMAP
0000
1000
1000
3800
3800
7e00
5fc1
5ff7
9ffe
8ffe
0ff6
0ff4
0384
0008
0008
0000
ENDCHAR
STARTCHAR romview_10
ENCODING -1 90
SWIDTH 516 0
DWIDTH 16 0
BBX 16 16 0 -16
BITMAP
0600
0400
0c00
1e00
2e00
cf00
9f80
1fc0
1fe0
1ff9
1fff
0ffc
07c8
0010
0020
0060
ENDCHAR
STARTCHAR romview_11
ENCODING -1 91
SWIDTH 516 0
DWIDTH 16 0
BBX 16 16 0 -16
BITMAP
00c0
0780
1f80
6300
0f80
0f80
0fc0
1fc0
1fc0
1fe0
0fe0
0ff8
01fe
0038
00e0
0300
ENDCHAR
STARTCHAR romview_12
ENCODING -1 92
SWIDTH 516 0
DWIDTH 16 0
BBX 16 16 0 -16
BITMAP
0000
1ff8
00e0
03e0
07c0
0fc0
1fc0
1fc0
1fc0
1fc0
0fc0
07c0
03e0
00e0
1ff8
0000
ENDCHAR
STARTCHAR romview_13
ENCODING -1 93
SWIDTH 516 0
DWIDTH 16 0
BBX 16 16 0 -16
BITMAP
0300
00e0
0038
01fe
0ff8
0fe0
1fe0
1fc0
1fc0
0fc0
0f80
0f80
6300
1f80
0780
00c0
ENDCHAR
STARTCHAR romview_14
ENCODING -1 94
SWIDTH 516 0
DWIDTH 16 0
BBX 16 16 0 -16
BITMAP
0060
0020
0010
07c8
0ffc
1fff
1ff9
1fe0
1fe0
9f80
cf00
2e00
1e00
0c00
0400
0600
ENDCHAR
STARTCHAR romview_15
ENCODING -1 95
SWIDTH 516 0
DWIDTH 16 0
BBX 16 16 0 -16
BITMAP
0000
0008
0008
0384
0ff4
0ff6
8ffe
9ffe
5ff7
5fc1
7e00
3800
3800
1000
1000
0000
ENDCHAR
STARTCHAR kliview_0
ENCODING -1 96
SWIDTH 516 0
DWIDTH 16 0
BBX 16 16 0 -16
BITMAP
0180
03c0
07e0
03c0
0180
0180
0180
2184
2184
3ffc
3ffc
318c
2004
2004
2004
2004
ENDCHAR
STARTCHAR kliview_1
ENCODING -1 97
SWIDTH 516 0
DWIDTH 16 0
BBX 16 16 0 -16
BITMAP
0020
0170
00f0
00f8
00f0
10c0
20c0
3180
7f80
6f84
c3e8
8378
8038
0010
0010
0020
ENDCHAR
STARTCHAR kliview_2
ENCODING -1 98 
SWIDTH 516 0
DWIDTH 16 0
BBX 16 16 0 -16
BITMAP
0000
0000
0038
083c
103c
307c
78e0
bdc0
0780
0700
0780
01c8
00f0
00e0
0040
0180
ENDCHAR
STARTCHAR kliview_3
ENCODING -1 99
SWIDTH 516 0
DWIDTH 16 0
BBX 16 16 0 -16
BITMAP
0000
0000
0200
1c08
781e
9c1f
0c7e
07fc
0f82
0f00
0300
0300
01a0
03c0
0700
1c00
ENDCHAR
STARTCHAR kliview_4
ENCODING -1 100
SWIDTH 516 0
DWIDTH 16 0
BBX 16 16 0 -16
BITMAP
0000
0000
ff80
0e00
0600
0604
060e
0fff
0fff
060e
0604
0600
0e00
ff80
0000
0000
ENDCHAR
STARTCHAR kliview_5
ENCODING -1 101
SWIDTH 516 0
DWIDTH 16 0
BBX 16 16 0 -16
BITMAP
1c00
0700
03c0
01a0
0300
0300
0f00
0f82
07fc
0c7e
9c1f
781e
1c08
0200
0000
0000
ENDCHAR
STARTCHAR kliview_6
ENCODING -1 102
SWIDTH 516 0
DWIDTH 16 0
BBX 16 16 0 -16
BITMAP
0180
0040
00e0
00f0
01c8
0780
0700
8f80
bdc0
78e0
307c
103c
083c
0038
0000
0000
ENDCHAR
STARTCHAR kliview_7
ENCODING -1 103
SWIDTH 516 0
DWIDTH 16 0
BBX 16 16 0 -16
BITMAP
0020
0010
0010
8038
8378
c3e8
6f84
7f80
3180
20c0
10c0
00f0
00f8
00f0
0170
0020
ENDCHAR
STARTCHAR kliview_8
ENCODING -1 104
SWIDTH 516 0
DWIDTH 16 0
BBX 16 16 0 -16
BITMAP
2004
2004
2004
2004
318c
3ffc
3ffc
2184
2184
0180
0180
0180
03c0
07e0
03c0
0180
ENDCHAR
STARTCHAR kliview_9
ENCODING -1 105
SWIDTH 516 0
DWIDTH 16 0
BBX 16 16 0 -16
BITMAP
0400
0800
0800
1c01
1ec1
17c3
21f6
01fe
018c
0304
0308
0f00
1f00
0f00
0e80
0400
ENDCHAR
STARTCHAR kliview_10
ENCODING -1 106
SWIDTH 516 0
DWIDTH 16 0
BBX 16 16 0 -16
BITMAP
0180
0200
0700
0f00
1380
01e0
00e0
01f1
03bd
071e
3e0c
3c08
3c10
1c00
0000
0000
ENDCHAR
STARTCHAR kliview_11
ENCODING -1 107
SWIDTH 516 0
DWIDTH 16 0
BBX 16 16 0 -16
BITMAP
0038
00e0
03c0
0580
00c0
00c0
00f0
41f0
3fe0
7e30
f839
781e
1038
0040
0000
0000
ENDCHAR
STARTCHAR kliview_12
ENCODING -1 108
SWIDTH 516 0
DWIDTH 16 0
BBX 16 16 0 -16
BITMAP
0000
0000
01ff
0070
0060
2060
7060
fff0
fff0
7060
2060
0060
0070
01ff
0000
0000
ENDCHAR
STARTCHAR kliview_13
ENCODING -1 109
SWIDTH 516 0
DWIDTH 16 0
BBX 16 16 0 -16
BITMAP
0000
0000
0040
1038
781e
f839
7e30
3fe0
41f0
00f0
00c0
00c0
0580
03c0
00e0
0038
ENDCHAR
STARTCHAR kliview_14
ENCODING -1 110
SWIDTH 516 0
DWIDTH 16 0
BBX 16 16 0 -16
BITMAP
0000
0000
1c00
3c10
3c08
3e0c
071e
03bd
01f1
00e0
01e0
1380
0f00
0700
0200
0100
ENDCHAR
STARTCHAR kliview_15
ENCODING -1 111
SWIDTH 516 0
DWIDTH 16 0
BBX 16 16 0 -16
BITMAP
0400
0e80
0f00
1f00
0f00
0308
0304
018c
01fe
21f6
17c3
1ec1
1c01
0800
0800
0400
ENDCHAR
STARTCHAR oriview_0
ENCODING -1 112
SWIDTH 516 0
DWIDTH 16 0
BBX 16 16 0 -16
BITMAP
0180
03c0
03c0
0180
0180
0180
03c0
07e0
0ff0
1ff8
3bdc
318c
318c
318c
318c
318c
ENDCHAR
STARTCHAR oriview_1
ENCODING -1 113
SWIDTH 516 0
DWIDTH 16 0
BBX 16 16 0 -16
BITMAP
0020
0070
00f0
0070
00e0
00c0
07c0
1fc0
7fe0
67f0
e3e0
c730
c638
8630
0c30
0460
ENDCHAR
STARTCHAR oriview_2
ENCODING -1 114
SWIDTH 516 0
DWIDTH 16 0
BBX 16 16 0 -16
BITMAP
0000
0000
0018
003c
003c
3ef8
7fe0
e7c0
c7e0
87e0
0fe0
1c60
3860
10e0
01c0
0380
ENDCHAR
STARTCHAR oriview_3
ENCODING -1 115
SWIDTH 516 0
DWIDTH 16 0
BBX 16 16 0 -16
BITMAP
0000
0000
0000
1000
7a0e
ff1f
87fe
07f4
0fc0
3fc0
fbc0
4180
0180
0700
1f00
3c00
ENDCHAR
STARTCHAR oriview_4
ENCODING -1 116
SWIDTH 516 0
DWIDTH 16 0
BBX 16 16 0 -16
BITMAP
0000
0000
fc00
fe00
0700
0380
07c6
ffff
ffff
07c6
0380
0700
fe00
fc00
0000
0000
ENDCHAR
STARTCHAR oriview_5
ENCODING -1 117
SWIDTH 516 0
DWIDTH 16 0
BBX 16 16 0 -16
BITMAP
3c00
1f00
0700
0180
4180
fbc0
3fc0
0fc0
07f4
87fe
ff1f
7a0e
1000
0000
0000
0000
ENDCHAR
STARTCHAR oriview_6
ENCODING -1 118
SWIDTH 516 0
DWIDTH 16 0
BBX 16 16 0 -16
BITMAP
0780
01c0
10e0
3860
1c60
0ee0
87e0
c3c0
e7e0
7fe0
3f78
003c
003c
0018
0000
0000
ENDCHAR
STARTCHAR oriview_7
ENCODING -1 119
SWIDTH 516 0
DWIDTH 16 0
BBX 16 16 0 -16
BITMAP
0460
0c30
8630
c638
c730
e3e0
67f0
7fe0
1fc0
07c0
00c0
00e0
0070
00f0
0070
0020
ENDCHAR
STARTCHAR oriview_8
ENCODING -1 120
SWIDTH 516 0
DWIDTH 16 0
BBX 16 16 0 -16
BITMAP
318c
318c
318c
318c
318c
3bdc
1ff8
0ff0
07e0
03c0
0180
0180
0180
03c0
03c0
0180
ENDCHAR
STARTCHAR oriview_9
ENCODING -1 121
SWIDTH 516 0
DWIDTH 16 0
BBX 16 16 0 -16
BITMAP
0620
0c30
0c61
1c63
0ce3
07c7
0fe6
07fe
03f8
03e0
0300
0700
0e00
0f00
0e00
0400
ENDCHAR
STARTCHAR oriview_10
ENCODING -1 122
SWIDTH 516 0
DWIDTH 16 0
BBX 16 16 0 -16
BITMAP
01e0
0380
0708
061c
0638
0771
07e1
07c3
03e7
07fe
1f7c
3c00
3c00
1800
0000
0000
ENDCHAR
STARTCHAR oriview_11
ENCODING -1 123
SWIDTH 516 0
DWIDTH 16 0
BBX 16 16 0 -16
BITMAP
003c
00f8
00e0
0180
0182
03df
03fc
03f0
2fe0
7fe1
f8ff
705e
0008
0000
0000
0000
ENDCHAR
STARTCHAR oriview_12
ENCODING -1 124
SWIDTH 516 0
DWIDTH 16 0
BBX 16 16 0 -16
BITMAP
0000
0000
003f
007f
00e0
01c0
63e0
ffff
ffff
63e0
01c0
00e0
007f
003f
0000
0000
ENDCHAR
STARTCHAR oriview_13
ENCODING -1 125
SWIDTH 516 0
DWIDTH 16 0
BBX 16 16 0 -16
BITMAP
0000
0000
0000
0008
705e
f8ff
7fe1
2fe0
03f0
03fc
03df
0182
0180
00e0
00f8
003c
ENDCHAR
STARTCHAR oriview_14
ENCODING -1 126
SWIDTH 516 0
DWIDTH 16 0
BBX 16 16 0 -16
BITMAP
0000
0000
1800
3c00
3c00
1efc
07fe
07ef
03c3
07e1
0771
0638
071c
0708
0300
01c0
ENDCHAR
STARTCHAR oriview_15
ENCODING -1 127
SWIDTH 516 0
DWIDTH 16 0
BBX 16 16 0 -16
BITMAP
0400
0e00
0f00
0e00
0700
0300
03e0
03f8
07fe
0fe6
07c7
0ce3
1c63
0c61
0c30
0620
ENDCHAR
STARTCHAR explosion_0 left side
ENCODING -1 0
SWIDTH 1032 0
DWIDTH 32 0
BBX 32 64 0 -64
BITMAP
00000000
00000000
00000000
00000000
00000000
00000000
00000000
00000000
00000000
00000000
00000000
00000000
00000000
00000000
00000000
00000000
00000000
00000000
00000000
00000000
00000000
00000000
00000000
00000000
00000000
00000001
00000008
00000014
00000000
00000050
00000007
00000029
000000ab
000000a9
00000006
0000002f
00000008
00000005
00000000
00000001
00000000
00000000
00000000
00000000
00000000
00000000
00000000
00000000
00000000
00000000
00000000
00000000
00000000
00000000
00000000
00000000
00000000
00000000
00000000
00000000
00000000
00000000
00000000
00000000
ENDCHAR
STARTCHAR explosion_1 left side
ENCODING -1 1
SWIDTH 1032 0
DWIDTH 32 0
BBX 32 64 0 -64
BITMAP
00000000
00000000
00000000
00000000
00000000
00000000
00000000
00000000
00000000
00000000
00000000
00000000
00000000
00000000
00000000
00000000
00000000
00000000
00000002
00000000
00000000
00000040
00000000
00000120
00000000
00000000
00002000
00001100
00000005
00000015
00000400
00000081
00000006
00004449
00000002
00004842
00000014
00000004
00000414
00000042
00000080
00000000
00000020
00000003
00000000
00000000
00000000
00000002
00000000
00000000
00000000
00000000
00000000
00000000
00000000
00000000
00000000
00000000
00000000
00000000
00000000
00000000
00000000
00000000
ENDCHAR
STARTCHAR explosion_2 left side
ENCODING -1 2
SWIDTH 1032 0
DWIDTH 32 0
BBX 32 64 0 -64
BITMAP
00000000
00000000
00000000
00000000
00000000
00000000
00000000
00000000
00000000
00000000
00000000
00000002
00000000
00000000
00000000
00000000
00000200
00000000
00000000
00002100
00000000
00000000
00000000
00100000
00002000
00080000
00000000
0000000a
00000089
00008000
00000002
00000801
0000000c
00200200
00008011
00000000
00000202
00220004
00000048
00000000
00000010
00008080
00000008
00000204
00000800
00000000
00000000
00000100
00000000
00000003
00000000
00000000
00000000
00000000
00000004
00000000
00000000
00000000
00000000
00000000
00000000
00000000
00000000
00000000
ENDCHAR
STARTCHAR explosion_3 left side
ENCODING -1 3
SWIDTH 1032 0
DWIDTH 32 0
BBX 32 64 0 -64
BITMAP
00000000
00000000
00000000
00000000
00000004
00000000
00000000
00000000
00000000
00000000
00001000
00000000
00000000
00000000
00000000
00020800
00000000
00000000
00000000
00000000
00000000
08000000
00020000
02000000
00000000
00000012
00000200
00000022
00000000
00100000
00004002
00000001
00000004
00000010
10001000
00200041
00000000
00000004
00001000
10400008
00000010
00000100
00000000
00000020
00000200
00200010
00000000
00001008
00000000
00008000
00000000
00000000
00000800
00000000
00000006
00000000
00000000
00000000
00000000
00000000
00000000
00000000
00000008
00000000
ENDCHAR
STARTCHAR explosion_4 left side
ENCODING -1 4
SWIDTH 1032 0
DWIDTH 32 0
BBX 32 64 0 -64
BITMAP
00000000
00000000
00000000
00000000
00000000
00008000
00000000
00000000
00000000
00000000
00000000
00204000
00000000
00000000
00000000
00000000
00000000
00000000
00000000
00400000
80000000
00000000
00000000
00000000
00000024
00000800
00000042
00000000
02000000
00000000
00040004
00000001
00000008
00000040
00010000
00000100
04000001
00000000
00000000
00008008
00000008
10000000
00000020
00000400
00000000
00000000
00000080
00000800
04000000
00000020
00000000
00008010
00000000
00040000
00000000
00000000
00000000
00004000
00000000
00000000
0000000a
00000000
00000000
00000000
ENDCHAR
STARTCHAR explosion_0 right side
ENCODING -1 5
SWIDTH 1032 0
DWIDTH 32 0
BBX 32 64 0 -64
BITMAP
00000000
00000000
00000000
00000000
00000000
00000000
00000000
00000000
00000000
00000000
00000000
00000000
00000000
00000000
00000000
00000000
00000000
00000000
00000000
00000000
00000000
00000000
00000000
00000000
00000000
40000000
58000000
38000000
d0000000
10000000
f0000000
a8000000
ae000000
44000000
d8000000
78000000
80000000
64000000
10000000
60000000
00000000
00000000
00000000
00000000
00000000
00000000
00000000
00000000
00000000
00000000
00000000
00000000
00000000
00000000
00000000
00000000
00000000
00000000
00000000
00000000
00000000
00000000
00000000
00000000
ENDCHAR
STARTCHAR explosion_1 right side
ENCODING -1 6
SWIDTH 1032 0
DWIDTH 32 0
BBX 32 64 0 -64
BITMAP
00000000
00000000
00000000
00000000
00000000
00000000
00000000
00000000
00000000
00000000
00000000
00000000
00000000
00000000
00000000
00000000
00000000
00000000
00000000
20000000
20800000
01000000
02800000
08000000
41000000
22000000
01000000
00000000
03000000
a4000000
48400000
40400000
48340000
00480000
20000000
00100000
12000000
e2400000
12000000
18800000
40000000
00000000
00200000
28000000
00000000
02000000
14000000
28000000
00000000
00000000
00000000
00000000
00000000
00000000
00000000
00000000
00000000
00000000
00000000
00000000
00000000
00000000
00000000
00000000
ENDCHAR
STARTCHAR explosion_2 right side
ENCODING -1 7
SWIDTH 1032 0
DWIDTH 32 0
BBX 32 64 0 -64
BITMAP
00000000
00000000
00000000
00000000
00000000
00000000
00000000
00000000
00000000
00000000
00000000
00000000
08000000
00000000
10040000
00000000
00100000
00200000
01040000
00000000
00100000
20000000
10400000
00100000
00000000
00000000
00400000
00900000
90000000
20040000
22020000
00000000
22010800
0000a000
00020000
10000000
00000000
00004000
00200000
44020000
48200000
00400000
09040000
0c000000
00000000
40000000
00000000
00000000
00010000
12000000
00000000
00200000
00400000
08800000
10000000
02000000
00000000
00000000
00000000
00000000
00000000
00000000
00000000
00000000
ENDCHAR
STARTCHAR explosion_3 right side
ENCODING -1 8
SWIDTH 1032 0
DWIDTH 32 0
BBX 32 64 0 -64
BITMAP
00000000
00000000
00000000
00000000
00000000
00000000
04000000
00000000
08000000
00004000
00010000
00000000
00040000
00004000
00400000
00000000
00000000
10010000
00080000
08000000
00010000
00000000
00000000
00000000
00080000
00010000
00100000
88000000
10000000
00802000
10002000
00000000
10400810
00000200
00000080
00001000
08000000
00000000
00000200
00000000
00040000
01000000
20001000
44040000
00080000
02000000
00404000
03000000
00000000
20000000
00000000
00000000
00000000
00000800
00000000
08800000
00000000
00000000
00040000
000c0000
02200000
00000000
04800000
00000000
ENDCHAR
STARTCHAR explosion_4 right side
ENCODING -1 9
SWIDTH 1032 0
DWIDTH 32 0
BBX 32 64 0 -64
BITMAP
02000000
00000000
04000000
00000200
00000000
00001000
00000000
00004000
00000200
00100000
00000000
00000000
00000000
08001000
00000000
00010000
04000000
00001000
00000000
00000000
00000000
00000000
00010000
00000000
00021000
00000000
84000000
08000000
00000100
00200100
08000000
00000000
00100040
10000008
00000002
00000080
00000100
04000000
00000000
00000000
00000008
00000000
0000c000
00000000
10400080
00004000
22000000
00010000
00800000
00000000
00900400
01000000
00000000
20000000
00000000
00000000
00000000
00000000
00000000
00000040
00000000
04100000
00000000
00000000
ENDCHAR
STARTCHAR cloud
ENCODING -1 10 
SWIDTH 225 0
DWIDTH 7 0
BBX 7 7 0 -7
BITMAP
28
54
aa
54
aa
54
28
ENDCHAR
STARTCHAR etorp
ENCODING -1 11 
SWIDTH 96 0
DWIDTH 3 0
BBX 3 3 0 -3
BITMAP
a0
40
a0
ENDCHAR
STARTCHAR mtorp
ENCODING -1 12
SWIDTH 96 0
DWIDTH 3 0
BBX 3 3 0 -3
BITMAP
40
e0
40
ENDCHAR
STARTCHAR planet0
ENCODING -1 32
SWIDTH 967 0
DWIDTH 30 0
BBX 30 30 0 -30
BITMAP
001fc000
00e03800
03000600
04000100
08000080
10000040
20000020
20000020
40000010
40000010
40000010
80000008
80000008
80000008
80000008
80000008
80000008
80000008
40000010
40000010
40000010
20000020
20000020
10000040
08000080
04000100
03000600
00e03800
001fc000
00000000
ENDCHAR
STARTCHAR planet1
ENCODING -1 33
SWIDTH 967 0
DWIDTH 30 0
BBX 30 30 0 -30
BITMAP
001fc000
00eab800
03555600
06aaab00
0d555580
1aaaaac0
35555560
2aaaaaa0
55555550
6aaaaab0
55555550
aaaaaaa8
d5555558
aaaaaaa8
d5555558
aaaaaaa8
d5555558
aaaaaaa8
55555550
6aaaaab0
55555550
2aaaaaa0
35555560
1aaaaac0
0d555580
06aaab00
03555600
00eab800
001fc000
00000000
ENDCHAR
STARTCHAR planet2
ENCODING -1 34
SWIDTH 967 0
DWIDTH 30 0
BBX 30 30 0 -30
BITMAP
001fc000
00e03800
03fffe00
04000100
0fffff80
10000040
3fffffe0
20000020
7ffffff0
40000010
7ffffff0
80000008
fffffff8
80000008
fffffff8
80000008
fffffff8
80000008
7ffffff0
40000010
7ffffff0
20000020
3fffffe0
10000040
0fffff80
04000100
03fffe00
00e03800
001fc000
00000000
ENDCHAR
STARTCHAR planet3
ENCODING -1 35
SWIDTH 967 0
DWIDTH 30 0
BBX 30 30 0 -30
BITMAP
001fc000
00eab800
03aaae00
06aaab00
0aaaaa80
1aaaaac0
2aaaaaa0
2aaaaaa0
6aaaaab0
6aaaaab0
6aaaaab0
aaaaaaa8
aaaaaaa8
aaaaaaa8
aaaaaaa8
aaaaaaa8
aaaaaaa8
aaaaaaa8
6aaaaab0
6aaaaab0
6aaaaab0
2aaaaaa0
2aaaaaa0
1aaaaac0
0aaaaa80
06aaab00
03aaae00
00eab800
001fc000
00000000
ENDCHAR
STARTCHAR planet4
ENCODING -1 36
SWIDTH 967 0
DWIDTH 30 0
BBX 30 30 0 -30
BITMAP
001fc000
00e93800
03924e00
05249300
0a492480
14924940
29249260
324924a0
64924930
49249250
52492490
a4924928
c9249248
92492498
a4924928
c9249248
92492498
a4924928
49249250
52492490
64924930
29249260
324924a0
14924940
09249280
06492500
03924e00
00e4b800
001fc000
00000000
ENDCHAR
STARTCHAR planet5
ENCODING -1 37
SWIDTH 967 0
DWIDTH 30 0
BBX 30 30 0 -30
BITMAP
001fc000
00e93800
03924e00
05249300
0a492480
14924940
29249260
324924a0
64924930
49249250
52492490
a4924928
c9249248
92492498
a4924928
c9249248
92492498
a4924928
49249250
52492490
64924930
29249260
324924a0
14924940
09249280
06492500
03924e00
00e4b800
001fc000
00000000
ENDCHAR
STARTCHAR planet6
ENCODING -1 38
SWIDTH 967 0
DWIDTH 30 0
BBX 30 30 0 -30
BITMAP
001fc000
00e93800
03924e00
05249300
0a492480
14924940
29249260
324924a0
64924930
49249250
52492490
a4924928
c9249248
92492498
a4924928
c9249248
92492498
a4924928
49249250
52492490
64924930
29249260
324924a0
14924940
09249280
06492500
03924e00
00e4b800
001fc000
00000000
ENDCHAR
STARTCHAR planet7
ENCODING -1 39
SWIDTH 967 0
DWIDTH 30 0
BBX 30 30 0 -30
BITMAP
001fc000
00e93800
03924e00
05249300
0a492480
14924940
29249260
324924a0
64924930
49249250
52492490
a4924928
c9249248
92492498
a4924928
c9249248
92492498
a4924928
49249250
52492490
64924930
29249260
324924a0
14924940
09249280
06492500
03924e00
00e4b800
001fc000
00000000
ENDCHAR
STARTCHAR planet8
ENCODING -1 40
SWIDTH 967 0
DWIDTH 30 0
BBX 30 30 0 -30
BITMAP
001fc000
00eab800
03555600
06aaab00
0d555580
1aaaaac0
35555560
2aaaaaa0
55555550
6aaaaab0
55555550
aaaaaaa8
d5555558
aaaaaaa8
d5555558
aaaaaaa8
d5555558
aaaaaaa8
55555550
6aaaaab0
55555550
2aaaaaa0
35555560
1aaaaac0
0d555580
06aaab00
03555600
00eab800
001fc000
00000000
ENDCHAR
STARTCHAR planet9
ENCODING -1 41
SWIDTH 967 0
DWIDTH 30 0
BBX 30 30 0 -30
BITMAP
001fc000
00eab800
03555600
06aaab00
0d555580
1aaaaac0
35555560
2aaaaaa0
55555550
6aaaaab0
55555550
aaaaaaa8
d5555558
aaaaaaa8
d5555558
aaaaaaa8
d5555558
aaaaaaa8
55555550
6aaaaab0
55555550
2aaaaaa0
35555560
1aaaaac0
0d555580
06aaab00
03555600
00eab800
001fc000
00000000
ENDCHAR
STARTCHAR planet10
ENCODING -1 42
SWIDTH 967 0
DWIDTH 30 0
BBX 30 30 0 -30
BITMAP
001fc000
00e03800
03fffe00
04000100
0fffff80
10000040
3fffffe0
20000020
7ffffff0
40000010
7ffffff0
80000008
fffffff8
80000008
fffffff8
80000008
fffffff8
80000008
7ffffff0
40000010
7ffffff0
20000020
3fffffe0
10000040
0fffff80
04000100
03fffe00
00e03800
001fc000
00000000
ENDCHAR
STARTCHAR planet11
ENCODING -1 43
SWIDTH 967 0
DWIDTH 30 0
BBX 30 30 0 -30
BITMAP
001fc000
00eab800
03aaae00
06aaab00
0aaaaa80
1aaaaac0
2aaaaaa0
2aaaaaa0
6aaaaab0
6aaaaab0
6aaaaab0
aaaaaaa8
aaaaaaa8
aaaaaaa8
aaaaaaa8
aaaaaaa8
aaaaaaa8
aaaaaaa8
6aaaaab0
6aaaaab0
6aaaaab0
2aaaaaa0
2aaaaaa0
1aaaaac0
0aaaaa80
06aaab00
03aaae00
00eab800
001fc000
00000000
ENDCHAR
STARTCHAR planet12
ENCODING -1 44
SWIDTH 967 0
DWIDTH 30 0
BBX 30 30 0 -30
BITMAP
001fc000
00e03800
03fffe00
04000100
0fffff80
10000040
3fffffe0
20000020
7ffffff0
40000010
7ffffff0
80000008
fffffff8
80000008
fffffff8
80000008
fffffff8
80000008
7ffffff0
40000010
7ffffff0
20000020
3fffffe0
10000040
0fffff80
04000100
03fffe00
00e03800
001fc000
00000000
ENDCHAR
STARTCHAR planet13
ENCODING -1 45
SWIDTH 967 0
DWIDTH 30 0
BBX 30 30 0 -30
BITMAP
001fc000
00eab800
03aaae00
06aaab00
0aaaaa80
1aaaaac0
2aaaaaa0
2aaaaaa0
6aaaaab0
6aaaaab0
6aaaaab0
aaaaaaa8
aaaaaaa8
aaaaaaa8
aaaaaaa8
aaaaaaa8
aaaaaaa8
aaaaaaa8
6aaaaab0
6aaaaab0
6aaaaab0
2aaaaaa0
2aaaaaa0
1aaaaac0
0aaaaa80
06aaab00
03aaae00
00eab800
001fc000
00000000
ENDCHAR
STARTCHAR planet14
ENCODING -1 46
SWIDTH 967 0
DWIDTH 30 0
BBX 30 30 0 -30
BITMAP
001fc000
00e93800
03924e00
05249300
0a492480
14924940
29249260
324924a0
64924930
49249250
52492490
a4924928
c9249248
92492498
a4924928
c9249248
92492498
a4924928
49249250
52492490
64924930
29249260
324924a0
14924940
09249280
06492500
03924e00
00e4b800
001fc000
00000000
ENDCHAR
STARTCHAR planet15
ENCODING -1 47
SWIDTH 967 0
DWIDTH 30 0
BBX 30 30 0 -30
BITMAP
001fc000
00e93800
03924e00
05249300
0a492480
14924940
29249260
324924a0
64924930
49249250
52492490
a4924928
c9249248
92492498
a4924928
c9249248
92492498
a4924928
49249250
52492490
64924930
29249260
324924a0
14924940
09249280
06492500
03924e00
00e4b800
001fc000
00000000
ENDCHAR
STARTCHAR mplanet0
ENCODING -1 48
SWIDTH 516 0
DWIDTH 16 0
BBX 16 16 0 -16
BITMAP
07c0
1830
2008
4004
4004
8002
8002
8002
8002
8002
4004
4004
2008
1830
07c0
0000
ENDCHAR
STARTCHAR mplanet1
ENCODING -1 49
SWIDTH 516 0
DWIDTH 16 0
BBX 16 16 0 -16
BITMAP
07c0
1ab0
3558
6aac
5554
aaaa
d556
aaaa
d556
aaaa
5554
6aac
3558
1ab0
07c0
0000
ENDCHAR
STARTCHAR mplanet2
ENCODING -1 50
SWIDTH 516 0
DWIDTH 16 0
BBX 16 16 0 -16
BITMAP
07c0
1830
3ff8
4004
7ffc
8002
fffe
8002
fffe
8002
7ffc
4004
3ff8
1830
07c0
0000
ENDCHAR
STARTCHAR mplanet3
ENCODING -1 51
SWIDTH 516 0
DWIDTH 16 0
BBX 16 16 0 -16
BITMAP
07c0
1ab0
2aa8
6aac
6aac
aaaa
aaaa
aaaa
aaaa
aaaa
6aac
6aac
2aa8
1ab0
07c0
0000
ENDCHAR
STARTCHAR mplanet4
ENCODING -1 52
SWIDTH 516 0
DWIDTH 16 0
BBX 16 16 0 -16
BITMAP
07c0
1a70
2498
4924
524c
a492
c926
924a
a492
c926
524c
6494
2928
1a70
07c0
0000
ENDCHAR
STARTCHAR mplanet5
ENCODING -1 53
SWIDTH 516 0
DWIDTH 16 0
BBX 16 16 0 -16
BITMAP
07c0
1a70
2498
4924
524c
a492
c926
924a
a492
c926
524c
6494
2928
1a70
07c0
0000
ENDCHAR
STARTCHAR mplanet6
ENCODING -1 54
SWIDTH 516 0
DWIDTH 16 0
BBX 16 16 0 -16
BITMAP
07c0
1a70
2498
4924
524c
a492
c926
924a
a492
c926
524c
6494
2928
1a70
07c0
0000
ENDCHAR
STARTCHAR mplanet7
ENCODING -1 55
SWIDTH 516 0
DWIDTH 16 0
BBX 16 16 0 -16
BITMAP
07c0
1a70
2498
4924
524c
a492
c926
924a
a492
c926
524c
6494
2928
1a70
07c0
0000
ENDCHAR
STARTCHAR mplanet8
ENCODING -1 56
SWIDTH 516 0
DWIDTH 16 0
BBX 16 16 0 -16
BITMAP
07c0
1ab0
3558
6aac
5554
aaaa
d556
aaaa
d556
aaaa
5554
6aac
3558
1ab0
07c0
0000
ENDCHAR
STARTCHAR mplanet9
ENCODING -1 57
SWIDTH 516 0
DWIDTH 16 0
BBX 16 16 0 -16
BITMAP
07c0
1ab0
3558
6aac
5554
aaaa
d556
aaaa
d556
aaaa
5554
6aac
3558
1ab0
07c0
0000
ENDCHAR
STARTCHAR mplanet10
ENCODING -1 58
SWIDTH 516 0
DWIDTH 16 0
BBX 16 16 0 -16
BITMAP
07c0
1830
3ff8
4004
7ffc
8002
fffe
8002
fffe
8002
7ffc
4004
3ff8
1830
07c0
0000
ENDCHAR
STARTCHAR mplanet11
ENCODING -1 59
SWIDTH 516 0
DWIDTH 16 0
BBX 16 16 0 -16
BITMAP
07c0
1ab0
2aa8
6aac
6aac
aaaa
aaaa
aaaa
aaaa
aaaa
6aac
6aac
2aa8
1ab0
07c0
0000
ENDCHAR
STARTCHAR mplanet12
ENCODING -1 60
SWIDTH 516 0
DWIDTH 16 0
BBX 16 16 0 -16
BITMAP
07c0
1830
3ff8
4004
7ffc
8002
fffe
8002
fffe
8002
7ffc
4004
3ff8
1830
07c0
0000
ENDCHAR
STARTCHAR mplanet13
ENCODING -1 61
SWIDTH 516 0
DWIDTH 16 0
BBX 16 16 0 -16
BITMAP
07c0
1ab0
2aa8
6aac
6aac
aaaa
aaaa
aaaa
aaaa
aaaa
6aac
6aac
2aa8
1ab0
07c0
0000
ENDCHAR
STARTCHAR mplanet14
ENCODING -1 62
SWIDTH 516 0
DWIDTH 16 0
BBX 16 16 0 -16
BITMAP
07c0
1a70
2498
4924
524c
a492
c926
924a
a492
c926
524c
6494
2928
1a70
07c0
0000
ENDCHAR
STARTCHAR mplanet15
ENCODING -1 63
SWIDTH 516 0
DWIDTH 16 0
BBX 16 16 0 -16
BITMAP
07c0
1a70
2498
4924
524c
a492
c926
924a
a492
c926
524c
6494
2928
1a70
07c0
0000
ENDCHAR
STARTCHAR shield
ENCODING -1 13
SWIDTH 645 0
DWIDTH 20 0
BBX 20 20 0 -20
BITMAP
03fc00
0c0300
100080
200040
400020
400020
800010
800010
800010
800010
800010
800010
800010
800010
400020
400020
200040
100080
0c0300
03fc00
ENDCHAR
STARTCHAR yellowshield
ENCODING -1 14
SWIDTH 645 0
DWIDTH 20 0
BBX 20 20 0 -20
BITMAP
015400
040100
100000
000040
400000
000020
800000
000010
800000
000010
800000
000010
800000
000010
400000
000020
200000
000080
080200
02a800
ENDCHAR
STARTCHAR redshield
ENCODING -1 15
SWIDTH 645 0
DWIDTH 20 0
BBX 20 20 0 -20
BITMAP
00cc00
0c0000
000080
000040
400000
400000
000010
000010
800000
800000
000010
000010
800000
800000
000020
000020
200000
100000
000300
033000
ENDCHAR
STARTCHAR reserved_0
ENCODING -1 16
SWIDTH 516 0
DWIDTH 16 0
BBX 16 16 0 -16
BITMAP
03c0
07e0
0ff0
0ff0
0ff0
07e0
03c0
0990
0990
0990
0ff0
0990
0990
0810
0810
0810
ENDCHAR
STARTCHAR reserved_1
ENCODING -1 17
SWIDTH 516 0
DWIDTH 16 0
BBX 16 16 0 -16
BITMAP
0060
03f8
03f8
03f8
03fc
01f8
09f8
09c0
1990
1f10
13a0
2760
2240
4040
0040
0080
ENDCHAR
STARTCHAR reserved_2
ENCODING -1 18
SWIDTH 516 0
DWIDTH 16 0
BBX 16 16 0 -16
BITMAP
0000
0078
00fc
00fe
00fe
04fe
08fe
19fc
27b8
4700
8f20
0540
0180
0100
0200
0400
ENDCHAR
STARTCHAR reserved_3
ENCODING -1 19
SWIDTH 516 0
DWIDTH 16 0
BBX 16 16 0 -16
BITMAP
0000
0000
0010
007e
037e
0c7f
78ff
85fe
0ffe
1e1e
0a00
03c0
0700
1800
2000
0000
ENDCHAR
STARTCHAR reserved_4
ENCODING -1 20
SWIDTH 516 0
DWIDTH 16 0
BBX 16 16 0 -16
BITMAP
0000
0000
0000
0000
ff9c
043e
047f
1fff
1fff
047f
043e
ff9c
0000
0000
0000
0000
ENDCHAR
STARTCHAR reserved_5
ENCODING -1 21
SWIDTH 516 0
DWIDTH 16 0
BBX 16 16 0 -16
BITMAP
0000
2000
1800
0700
03c0
0a00
1e1e
0ffe
85fe
78ff
0c7f
037e
007e
0010
0000
0000
ENDCHAR
STARTCHAR reserved_6
ENCODING -1 22
SWIDTH 516 0
DWIDTH 16 0
BBX 16 16 0 -16
BITMAP
0400
0200
0100
0080
04c0
8f20
4700
3f80
11fc
08fe
05fe
01fe
01fe
00fc
0078
0000
ENDCHAR
STARTCHAR reserved_7
ENCODING -1 23
SWIDTH 516 0
DWIDTH 16 0
BBX 16 16 0 -16
BITMAP
0080
0040
4040
2240
2760
13a0
1f10
1990
09c0
09f8
01f8
03fc
03f8
03f8
03f8
0060
ENDCHAR
STARTCHAR reserved_8
ENCODING -1 24
SWIDTH 516 0
DWIDTH 16 0
BBX 16 16 0 -16
BITMAP
0810
0810
0810
0990
0990
0ff0
0990
0990
0990
03c0
07e0
0ff0
0ff0
0ff0
07e0
03c0
ENDCHAR
STARTCHAR reserved_9
ENCODING -1 25
SWIDTH 516 0
DWIDTH 16 0
BBX 16 16 0 -16
BITMAP
0100
0200
0202
0244
06e4
05c8
08f8
0998
0390
1f90
1f80
3fc0
1fc0
1fc0
1fc0
0600
ENDCHAR
STARTCHAR reserved_10
ENCODING -1 26
SWIDTH 516 0
DWIDTH 16 0
BBX 16 16 0 -16
BITMAP
0020
0040
0080
0180
02a0
04f1
00e2
1de4
3f98
7f10
7f20
7f00
7f00
3f00
1e00
0000
ENDCHAR
STARTCHAR reserved_11
ENCODING -1 27
SWIDTH 516 0
DWIDTH 16 0
BBX 16 16 0 -16
BITMAP
0000
0004
0018
00e0
03c0
0050
7878
7ff0
7fa1
ff1e
fe30
7ec0
7e00
0800
0000
0000
ENDCHAR
STARTCHAR reserved_12
ENCODING -1 28
SWIDTH 516 0
DWIDTH 16 0
BBX 16 16 0 -16
BITMAP
0000
0000
0000
0000
39ff
7c20
fe20
fff8
fff8
fe20
7c20
39ff
0000
0000
0000
0000
ENDCHAR
STARTCHAR reserved_13
ENCODING -1 29
SWIDTH 516 0
DWIDTH 16 0
BBX 16 16 0 -16
BITMAP
0000
0000
0800
7e00
7ec0
fe30
ff1e
7fa1
7ff0
7878
0050
03c0
00e0
0018
0004
0000
ENDCHAR
STARTCHAR reserved_14
ENCODING -1 30
SWIDTH 516 0
DWIDTH 16 0
BBX 16 16 0 -16
BITMAP
0000
1e00
3f00
7f80
7f80
7fa0
7f10
3f88
01fc
00e2
04f1
0320
0100
0080
0040
0020
ENDCHAR
STARTCHAR reserved_15
ENCODING -1 31 
SWIDTH 516 0
DWIDTH 16 0
BBX 16 16 0 -16
BITMAP
0600
1fc0
1fc0
1fc0
3fc0
1f80
1f90
0390
0998
08f8
05c8
06e4
0244
0202
0200
0100
ENDCHAR
ENDFONT
